<svg width="24" height="24" xmlns="http://www.w3.org/2000/svg" xmlns:sodipodi="http://sodipodi.sourceforge.net/DTD/sodipodi-0.dtd" xmlns:inkscape="http://www.inkscape.org/namespaces/inkscape" xml:space="preserve" version="1.1" fill="none">
 <defs id="defs1">
  <linearGradient y2="100%" x2="100%" y1="0%" x1="0%" id="gradient1">
   <stop stop-color="#1E90FF" offset="0%"/>
   <stop stop-color="#00CED1" offset="100%"/>
  </linearGradient>
 </defs>
 <g>
  <title>Layer 1</title>
  <path fill-rule="evenodd" clip-rule="evenodd" d="m3,12.68972c0.41421,0 0.75,0.3358 0.75,0.75c0,1.4354 0.00159,2.4365 0.10315,3.1919c0.09865,0.7338 0.2791,1.1223 0.55586,1.3991c0.27676,0.2768 0.66534,0.4572 1.39911,0.5559c0.75535,0.1015 1.75647,0.1031 3.19188,0.1031l6,0c1.4354,0 2.4365,-0.0016 3.1919,-0.1031c0.7338,-0.0987 1.1223,-0.2791 1.3991,-0.5559c0.2768,-0.2768 0.4572,-0.6653 0.5559,-1.3991c0.1015,-0.7554 0.1031,-1.7565 0.1031,-3.1919c0,-0.4142 0.3358,-0.75 0.75,-0.75c0.4142,0 0.75,0.3358 0.75,0.75l0,0.0549c0,1.3676 0,2.4699 -0.1165,3.3369c-0.121,0.9001 -0.3799,1.6579 -0.9818,2.2598c-0.602,0.602 -1.3598,0.8609 -2.2599,0.9819c-0.867,0.1165 -1.9693,0.1165 -3.3369,0.1165l-6.10977,0c-1.36759,0 -2.46991,0 -3.33688,-0.1165c-0.90011,-0.121 -1.65798,-0.3799 -2.2599,-0.9818c-0.60192,-0.602 -0.86081,-1.3598 -0.98183,-2.2599c-0.11656,-0.867 -0.11654,-1.9693 -0.11652,-3.3369c0,-0.0183 0,-0.0366 0,-0.0549c0,-0.4142 0.33579,-0.75 0.75,-0.75z" fill="url(#gradient1)" id="svg_1"/>
  <path stroke-width="0" fill="url(#gradient1)" aria-label="@" transform="translate(-0.0493827 0.296296) scale(1.02606 0.974601)" id="svg_3" d="m14.39997,8.58892q-0.33073,3.49918 -0.33073,3.99528q0,1.30971 0.74084,1.30971q0.70777,0 1.16419,-0.81361q0.46303,-0.81361 0.46303,-2.09024q0,-1.86535 -1.18403,-3.04276q-1.18403,-1.18403 -3.27428,-1.18403q-2.08363,0 -3.4661,1.46184q-1.37586,1.45524 -1.37586,3.63147q0,2.12993 1.27003,3.39996q1.27002,1.27002 3.4661,1.27002q1.70659,0 2.99645,-0.59532l0,1.05173q-1.24356,0.52918 -3.11552,0.52918q-2.59957,0 -4.21356,-1.54123q-1.61399,-1.54784 -1.61399,-4.09449q0,-2.61281 1.69998,-4.34586q1.69998,-1.73966 4.35909,-1.73966q2.47389,0 4.06803,1.41554q1.59415,1.41555 1.59415,3.71746q0,1.76612 -0.89299,2.85755q-0.88637,1.09142 -2.163,1.09142q-1.56107,0 -1.59415,-1.58091l-0.03969,0q-0.51594,1.58091 -1.96456,1.58091q-0.97898,0 -1.58091,-0.71438q-0.60194,-0.71439 -0.60194,-1.95795q0,-1.62722 0.83345,-2.67896q0.83345,-1.05173 2.11009,-1.05173q0.4961,0 0.88637,0.24474q0.39688,0.23813 0.51595,0.65486l0.02646,0l0.07276,-0.78054l1.14434,0zm-4.35908,3.61824q0,0.77392 0.32412,1.23033q0.33073,0.45642 0.8996,0.45642q0.80699,0 1.27663,-0.83345q0.47626,-0.83345 0.47626,-2.18947q0,-1.42216 -1.18403,-1.42216q-0.80038,0 -1.29648,0.807q-0.4961,0.80699 -0.4961,1.95133z"/>
  <g fill="url(#gradient1)" transform="matrix(0.0191156 0 0 0.0179014 15.2876 -0.737198)" id="g3">
   <g fill="url(#gradient1)" id="g2">
    <g fill="url(#gradient1)" id="g1">
     <path fill="url(#gradient1)" id="path1" d="m439.50675,379.72107l-16.116,-16.12c-5.06,-5.068 -11.824,-7.872 -19.024,-7.872c-7.208,0 -14.584,2.804 -19.644,7.872l-104.196,103.576l0,-329.068c0,-14.84 -10.832,-26.924 -25.668,-26.924l-22.804,0c-14.832,0 -28.404,12.084 -28.404,26.924l0,330.24l-103.988,-104.748c-5.068,-5.068 -11.444,-7.872 -18.652,-7.872c-7.2,0 -13.776,2.804 -18.84,7.872l-16.028,16.12c-10.488,10.492 -10.444,27.56 0.044,38.052l177.576,177.556c5.056,5.056 11.84,7.856 19.1,7.856l0.076,0c7.204,0 13.972,-2.8 19.028,-7.856l177.54,-177.552c10.496,-10.488 10.496,-27.564 0,-38.056z"/>
    </g>
   </g>
  </g>
 </g>
</svg>