<?xml version="1.0" encoding="UTF-8" standalone="no"?>
<svg
   width="24.000000000000004"
   height="24.000000000000004"
   fill="none"
   version="1.1"
   id="svg1"
   sodipodi:docname="tr.svg"
   xml:space="preserve"
   inkscape:version="1.4.2 (f4327f4, 2025-05-13)"
   xmlns:inkscape="http://www.inkscape.org/namespaces/inkscape"
   xmlns:sodipodi="http://sodipodi.sourceforge.net/DTD/sodipodi-0.dtd"
   xmlns="http://www.w3.org/2000/svg"
   xmlns:svg="http://www.w3.org/2000/svg"><defs
     id="defs1">
     <linearGradient id="gradient1" x1="0%" y1="0%" x2="100%" y2="100%">
       <stop offset="0%" style="stop-color:#1E90FF;stop-opacity:1" />
       <stop offset="100%" style="stop-color:#00CED1;stop-opacity:1" />
     </linearGradient>
   </defs><sodipodi:namedview
     id="namedview1"
     pagecolor="#ffffff"
     bordercolor="#000000"
     borderopacity="0.25"
     inkscape:showpageshadow="2"
     inkscape:pageopacity="0.0"
     inkscape:pagecheckerboard="0"
     inkscape:deskcolor="#d1d1d1"
     inkscape:zoom="25.190679"
     inkscape:cx="14.330697"
     inkscape:cy="12.802354"
     inkscape:window-width="2400"
     inkscape:window-height="1261"
     inkscape:window-x="2391"
     inkscape:window-y="-9"
     inkscape:window-maximized="1"
     inkscape:current-layer="svg1" /><path
     id="svg_1"
     fill="url(#gradient1)"
     d="m 3,12.68972 c 0.41421,0 0.75,0.3358 0.75,0.75 0,1.4354 0.00159,2.4365 0.10315,3.1919 0.09865,0.7338 0.2791,1.1223 0.55586,1.3991 0.27676,0.2768 0.66534,0.4572 1.39911,0.5559 0.75535,0.1015 1.75647,0.1031 3.19188,0.1031 h 6 c 1.4354,0 2.4365,-0.0016 3.1919,-0.1031 0.7338,-0.0987 1.1223,-0.2791 1.3991,-0.5559 0.2768,-0.2768 0.4572,-0.6653 0.5559,-1.3991 0.1015,-0.7554 0.1031,-1.7565 0.1031,-3.1919 0,-0.4142 0.3358,-0.75 0.75,-0.75 0.4142,0 0.75,0.3358 0.75,0.75 v 0.0549 c 0,1.3676 0,2.4699 -0.1165,3.3369 -0.121,0.9001 -0.3799,1.6579 -0.9818,2.2598 -0.602,0.602 -1.3598,0.8609 -2.2599,0.9819 -0.867,0.1165 -1.9693,0.1165 -3.3369,0.1165 H 8.94513 c -1.36759,0 -2.46991,0 -3.33688,-0.1165 -0.90011,-0.121 -1.65798,-0.3799 -2.2599,-0.9818 -0.60192,-0.602 -0.86081,-1.3598 -0.98183,-2.2599 -0.11656,-0.867 -0.11654,-1.9693 -0.11652,-3.3369 0,-0.0183 0,-0.0366 0,-0.0549 0,-0.4142 0.33579,-0.75 0.75,-0.75 z"
     clip-rule="evenodd"
     fill-rule="evenodd"
     style="fill:url(#gradient1)" /><path
     d="m 14.399971,8.588922 q -0.330735,3.499175 -0.330735,3.995277 0,1.30971 0.740846,1.30971 0.707773,0 1.164187,-0.813608 0.463029,-0.813607 0.463029,-2.090244 0,-1.8653446 -1.184031,-3.0427606 -1.184031,-1.1840308 -3.274275,-1.1840308 -2.0836298,0 -3.4661015,1.461848 -1.375857,1.4552334 -1.375857,3.6314684 0,2.129933 1.2700218,3.399955 1.2700219,1.270022 3.4661017,1.270022 1.706592,0 2.996457,-0.595323 v 1.051737 q -1.243563,0.529175 -3.115522,0.529175 -2.5995759,0 -4.213562,-1.541224 -1.6139861,-1.547839 -1.6139861,-4.094498 0,-2.6128049 1.6999772,-4.3458556 1.6999771,-1.7396653 4.3590849,-1.7396653 2.473897,0 4.068039,1.4155452 1.594142,1.4155452 1.594142,3.7174597 0,1.766124 -0.892984,2.857549 -0.886369,1.091425 -2.163006,1.091425 -1.561068,0 -1.594142,-1.580912 h -0.03969 q -0.515946,1.580912 -1.964565,1.580912 -0.978975,0 -1.5809127,-0.714387 -0.6019374,-0.714387 -0.6019374,-1.95795 0,-1.627216 0.8334518,-2.6789527 0.8334523,-1.0517369 2.1100883,-1.0517369 0.496102,0 0.88637,0.2447438 0.396881,0.2381291 0.515946,0.654855 h 0.02646 l 0.07276,-0.7805342 z m -4.359085,3.618239 q 0,0.77392 0.32412,1.230334 0.330735,0.456414 0.899599,0.456414 0.806993,0 1.276636,-0.833452 0.476258,-0.833452 0.476258,-2.189465 0,-1.4221594 -1.184031,-1.4221594 -0.800378,0 -1.29648,0.8069934 -0.496102,0.806993 -0.496102,1.951335 z"
     id="svg_3"
     style="font-weight:bold;font-size:13.5469px;font-family:Mulish;fill:url(#gradient1);stroke-width:0"
     transform="scale(1.0260611,0.97460084)"
     aria-label="@" /><g
     style="fill:url(#gradient1)"
     id="g3"
     transform="matrix(0.01165495,0,0,0.01021024,16.692177,4.132857)"><g
       id="g2"
       style="fill:url(#gradient1)">
    <g
   id="g1"
   style="fill:url(#gradient1)">
        <path
   d="m 442.668,268.536 -16.116,-16.12 c -5.06,-5.068 -11.824,-7.872 -19.024,-7.872 -7.208,0 -14.584,2.804 -19.644,7.872 L 283.688,355.992 V 26.924 C 283.688,12.084 272.856,0 258.02,0 h -22.804 c -14.832,0 -28.404,12.084 -28.404,26.924 v 330.24 L 102.824,252.416 c -5.068,-5.068 -11.444,-7.872 -18.652,-7.872 -7.2,0 -13.776,2.804 -18.84,7.872 l -16.028,16.12 c -10.488,10.492 -10.444,27.56 0.044,38.052 l 177.576,177.556 c 5.056,5.056 11.84,7.856 19.1,7.856 h 0.076 c 7.204,0 13.972,-2.8 19.028,-7.856 l 177.54,-177.552 c 10.496,-10.488 10.496,-27.564 0,-38.056 z"
   id="path1"
   style="fill:url(#gradient1)" />
    </g>
</g></g></svg>