<svg width="15" height="15" xmlns="http://www.w3.org/2000/svg" fill="none">

 <g>
  <title>Layer 1</title>
  <path id="svg_1" fill="#000000" d="m7.6277,0.92234c0.24853,0 0.45,0.20147 0.45,0.45l0,6.9136l2.23185,-2.2318c0.1757,-0.17574 0.4606,-0.17574 0.6363,0c0.1758,0.17574 0.1758,0.46066 0,0.6364l-2.99995,3c-0.17574,0.17573 -0.46066,0.17573 -0.6364,0l-3,-3c-0.17574,-0.17574 -0.17574,-0.46066 0,-0.6364c0.17574,-0.17574 0.46066,-0.17574 0.6364,0l2.2318,2.2318l0,-6.9136c0,-0.24853 0.20147,-0.45 0.45,-0.45zm-5.00005,8.95001c0.27614,0 0.5,0.2239 0.5,0.5l0,1.5c0,0.5539 0.44565,1 0.99635,1l7.00485,0c0.5517,0 0.9988,-0.4472 0.9988,-1l0,-1.5c0,-0.2761 0.2239,-0.5 0.5,-0.5c0.2761,0 0.5,0.2239 0.5,0.5l0,1.5c0,1.1041 -0.8938,2 -1.9988,2l-7.00485,0c-1.10616,0 -1.99635,-0.897 -1.99635,-2l0,-1.5c0,-0.2761 0.22386,-0.5 0.5,-0.5z" clip-rule="evenodd" fill-rule="evenodd"/>
 </g>
</svg>